<svg width="880.6712" height="624.28116" xmlns="http://www.w3.org/2000/svg">
 <g>
  <title>Layer 1</title>
  <path d="m565.52313,504.58585a16.44057,16.44057 0 0 1 -4.80762,-0.7207l-334.75586,-102.16944a16.51838,16.51838 0 0 1 -10.96472,-20.59765l84.36279,-276.4126a16.51806,16.51806 0 0 1 20.598,-10.96485l334.75564,102.16944a16.51865,16.51865 0 0 1 10.96484,20.59814l-84.36279,276.4126a16.53091,16.53091 0 0 1 -15.79028,11.68506z" fill="#1fbb52" id="svg_1"/>
  <path d="m615.3356,460.28116l-350,0a17.01908,17.01908 0 0 1 -17,-17l0,-289a17.01908,17.01908 0 0 1 17,-17l350,0a17.01917,17.01917 0 0 1 17,17l0,289a17.01917,17.01917 0 0 1 -17,17zm-350,-321a15.017,15.017 0 0 0 -15,15l0,289a15.017,15.017 0 0 0 15,15l350,0a15.017,15.017 0 0 0 15,-15l0,-289a15.017,15.017 0 0 0 -15,-15l-350,0z" fill="#3f3d56" id="svg_2"/>
  <path d="m440.33561,426.28116a1,1 0 0 1 -1,-1l0,-195a1,1 0 0 1 2,0l0,195a1,1 0 0 1 -1,1z" fill="#fff" id="svg_3"/>
  <path d="m387.33637,379.58829a0.99989,0.99989 0 0 1 -0.4364,-1.8999l105.99992,-51.30713a0.99987,0.99987 0 1 1 0.87158,1.7998l-106.00016,51.30713a0.99027,0.99027 0 0 1 -0.43494,0.1001z" fill="#fff" id="svg_4"/>
  <path d="m404.83767,328.28116a1.00013,1.00013 0 0 1 -0.47277,-1.88184l71,-38a1.00018,1.00018 0 0 1 0.94384,1.76368l-71,38a0.99915,0.99915 0 0 1 -0.47107,0.11816z" fill="#fff" id="svg_5"/>
  <path d="m419.33636,271.30458a1.00009,1.00009 0 0 1 -0.48156,-1.87695l42,-23.02344a1.00006,1.00006 0 0 1 0.96142,1.7539l-42,23.02344a0.99688,0.99688 0 0 1 -0.47986,0.12305z" fill="#fff" id="svg_6"/>
  <path d="m493.3348,379.58829a0.99027,0.99027 0 0 1 -0.43494,-0.1001l-106,-51.30713a0.99981,0.99981 0 1 1 0.87134,-1.7998l106,51.30713a0.99989,0.99989 0 0 1 -0.4364,1.8999z" fill="#fff" id="svg_7"/>
  <path d="m475.83487,328.28116a0.99915,0.99915 0 0 1 -0.47107,-0.11816l-71,-38a1.00018,1.00018 0 0 1 0.94384,-1.76368l71,38a1.00013,1.00013 0 0 1 -0.47277,1.88184z" fill="#fff" id="svg_8"/>
  <path d="m461.33484,271.30458a0.99657,0.99657 0 0 1 -0.47986,-0.123l-42,-23.02344a1.00006,1.00006 0 0 1 0.96142,-1.7539l42,23.02344a1.00009,1.00009 0 0 1 -0.48156,1.87695l0,-0.00005z" fill="#fff" id="svg_9"/>
  <path d="m457.33561,459.78116l-34,0a6.50744,6.50744 0 0 1 -6.5,-6.5l0,-22a6.50745,6.50745 0 0 1 6.5,-6.5l34,0a6.50745,6.50745 0 0 1 6.5,6.5l0,22a6.50744,6.50744 0 0 1 -6.5,6.5z" fill="#3f3d56" id="svg_10"/>
  <circle cx="440.33559" cy="196.86384" r="14.63281" fill="#ff6584" id="svg_11"/>
  <path d="m463.09773,143.21458c0,0.56093 -0.01629,1.11372 -0.065,1.65837a22.75977,22.75977 0 1 1 -42.82534,-12.28343a20.922,20.922 0 0 1 1.67465,-2.69081a22.75312,22.75312 0 0 1 41.1344,11.46231c0.05688,0.60974 0.08129,1.22756 0.08129,1.85356z" fill="#3f3d56" id="svg_12"/>
  <circle cx="440.33558" cy="458.87171" r="14.63281" fill="#e6e6e6" id="svg_13"/>
  <circle cx="440.33558" cy="137.87171" r="14.63281" fill="#e6e6e6" id="svg_14"/>
 </g>

</svg>